<svg width="126" height="131" viewBox="0 0 126 131" fill="none" xmlns="http://www.w3.org/2000/svg">
<path d="M100.875 39.1044C100.875 59.8631 83.9276 76.7089 63 76.7089C42.0724 76.7089 25.125 59.8631 25.125 39.1044C25.125 18.3458 42.0724 1.5 63 1.5C83.9276 1.5 100.875 18.3458 100.875 39.1044Z" stroke="#C4C4C4" stroke-width="3"/>
<path d="M124.399 129.5H1.58971C1.59769 129.411 1.60639 129.318 1.61586 129.222C1.73381 128.021 1.97176 126.243 2.45177 123.979C3.41164 119.451 5.33991 112.975 9.21478 105.279C13.0154 97.7301 19.4757 91.2892 25.0686 86.7007C27.8531 84.4163 30.396 82.6125 32.2405 81.3812C33.1455 80.7771 33.8811 80.3117 34.3929 79.996C34.9074 80.3495 35.6498 80.8512 36.5725 81.4519C38.4248 82.6576 41.0109 84.2669 43.9438 85.8781C46.8729 87.4873 50.1714 89.1117 53.4457 90.337C56.7 91.5548 60.0325 92.4179 63 92.4179C65.9714 92.4179 69.2454 91.553 72.4142 90.3318C75.6009 89.1037 78.7799 87.476 81.5883 85.8645C84.4005 84.2508 86.8654 82.6394 88.6267 81.432C89.5042 80.8304 90.2088 80.3279 90.6969 79.9737C90.7012 79.976 90.7054 79.9783 90.7097 79.9806C91.2466 80.2713 92.0279 80.7076 92.9924 81.2839C94.9227 82.4371 97.5804 84.1466 100.479 86.3655C106.3 90.8217 112.978 97.2462 116.769 105.247C120.658 113.453 122.59 119.943 123.55 124.354C124.03 126.559 124.268 128.246 124.385 129.369C124.39 129.413 124.394 129.457 124.399 129.5Z" stroke="#C4C4C4" stroke-width="3"/>
</svg>
